<svg xmlns="http://www.w3.org/2000/svg" version="1.1" xmlns:xlink="http://www.w3.org/1999/xlink" xmlns:svgjs="http://svgjs.dev/svgjs" viewBox="0 0 1422 800"><circle r="27" cx="687" cy="110" fill="hsl(323, 50%, 50%)" opacity="0.21"></circle><circle r="14.5" cx="118" cy="685" fill="hsl(136, 50%, 50%)" opacity="0.37"></circle><circle r="18" cx="377" cy="689" stroke-width="2" stroke="hsl(180, 50%, 50%)" fill="none" opacity="0.39"></circle><circle r="16.5" cx="338" cy="762" stroke-width="2" stroke="hsl(174, 50%, 50%)" fill="none" opacity="0.36"></circle><circle r="20.5" cx="489" cy="265" fill="hsl(232, 50%, 50%)" opacity="0.73"></circle><circle r="24.5" cx="461" cy="40" stroke-width="2" stroke="hsl(281, 50%, 50%)" fill="none" opacity="0.78"></circle><circle r="16.5" cx="1189" cy="223" stroke-width="2" stroke="hsl(152, 50%, 50%)" fill="none" opacity="0.66"></circle><circle r="26.5" cx="648" cy="518" stroke-width="2" stroke="hsl(287, 50%, 50%)" fill="none" opacity="0.38"></circle><circle r="14" cx="176" cy="758" stroke-width="2" stroke="hsl(142, 50%, 50%)" fill="none" opacity="0.78"></circle><circle r="15" cx="130" cy="306" stroke-width="2" stroke="hsl(136, 50%, 50%)" fill="none" opacity="0.84"></circle><circle r="16.5" cx="273" cy="212" stroke-width="2" stroke="hsl(159, 50%, 50%)" fill="none" opacity="0.33"></circle><circle r="21.5" cx="1380" cy="664" stroke-width="2" stroke="hsl(228, 50%, 50%)" fill="none" opacity="0.45"></circle><circle r="20.5" cx="1383" cy="469" stroke-width="2" stroke="hsl(228, 50%, 50%)" fill="none" opacity="0.35"></circle><circle r="22" cx="1369" cy="756" fill="hsl(218, 50%, 50%)" opacity="0.44"></circle><circle r="16.5" cx="324" cy="368" stroke-width="2" stroke="hsl(168, 50%, 50%)" fill="none" opacity="0.40"></circle><circle r="23" cx="1375" cy="49" stroke-width="2" stroke="hsl(210, 50%, 50%)" fill="none" opacity="0.32"></circle><circle r="17.5" cx="205" cy="36" fill="hsl(206, 50%, 50%)" opacity="0.87"></circle><circle r="24" cx="573" cy="289" stroke-width="2" stroke="hsl(260, 50%, 50%)" fill="none" opacity="0.24"></circle><circle r="15.5" cx="196" cy="191" stroke-width="2" stroke="hsl(145, 50%, 50%)" fill="none" opacity="0.70"></circle><circle r="25.5" cx="761" cy="248" stroke-width="2" stroke="hsl(292, 50%, 50%)" fill="none" opacity="0.80"></circle><circle r="12" cx="33" cy="756" stroke-width="2" stroke="hsl(128, 50%, 50%)" fill="none" opacity="0.73"></circle><circle r="19.5" cx="1295" cy="676" fill="hsl(187, 50%, 50%)" opacity="0.62"></circle><circle r="13.5" cx="47" cy="514" stroke-width="2" stroke="hsl(129, 50%, 50%)" fill="none" opacity="0.26"></circle><circle r="15" cx="198" cy="676" stroke-width="2" stroke="hsl(145, 50%, 50%)" fill="none" opacity="0.58"></circle><circle r="20" cx="997" cy="585" stroke-width="2" stroke="hsl(194, 50%, 50%)" fill="none" opacity="0.29"></circle><circle r="22.5" cx="525" cy="190" stroke-width="2" stroke="hsl(242, 50%, 50%)" fill="none" opacity="0.19"></circle><circle r="19.5" cx="433" cy="206" stroke-width="2" stroke="hsl(204, 50%, 50%)" fill="none" opacity="0.86"></circle><circle r="19.5" cx="424" cy="471" stroke-width="2" stroke="hsl(204, 50%, 50%)" fill="none" opacity="0.74"></circle><circle r="26" cx="658" cy="430" fill="hsl(287, 50%, 50%)" opacity="0.27"></circle><circle r="17.5" cx="1105" cy="671" fill="hsl(152, 50%, 50%)" opacity="0.94"></circle><circle r="18.5" cx="1270" cy="591" stroke-width="2" stroke="hsl(177, 50%, 50%)" fill="none" opacity="0.22"></circle><circle r="23" cx="1376" cy="573" stroke-width="2" stroke="hsl(218, 50%, 50%)" fill="none" opacity="0.71"></circle><circle r="24.5" cx="671" cy="271" fill="hsl(291, 50%, 50%)" opacity="0.27"></circle><circle r="25.5" cx="704" cy="759" fill="hsl(293, 50%, 50%)" opacity="0.55"></circle><circle r="18" cx="1059" cy="304" stroke-width="2" stroke="hsl(164, 50%, 50%)" fill="none" opacity="0.24"></circle><circle r="18.5" cx="1206" cy="381" fill="hsl(156, 50%, 50%)" opacity="0.75"></circle><circle r="15.5" cx="41" cy="424" stroke-width="2" stroke="hsl(128, 50%, 50%)" fill="none" opacity="0.70"></circle><circle r="29" cx="792" cy="576" stroke-width="2" stroke="hsl(288, 50%, 50%)" fill="none" opacity="0.66"></circle><circle r="24.5" cx="562" cy="689" fill="hsl(260, 50%, 50%)" opacity="0.40"></circle><circle r="18" cx="297" cy="131" fill="hsl(184, 50%, 50%)" opacity="0.83"></circle><circle r="16" cx="232" cy="363" fill="hsl(152, 50%, 50%)" opacity="0.78"></circle><circle r="18.5" cx="1081" cy="42" fill="hsl(182, 50%, 50%)" opacity="0.52"></circle><circle r="19" cx="376" cy="127" stroke-width="2" stroke="hsl(205, 50%, 50%)" fill="none" opacity="0.35"></circle><circle r="23.5" cx="721" cy="34" stroke-width="2" stroke="hsl(332, 50%, 50%)" fill="none" opacity="0.89"></circle><circle r="21" cx="494" cy="420" stroke-width="2" stroke="hsl(232, 50%, 50%)" fill="none" opacity="0.46"></circle></svg>